<svg width="130" height="130" viewBox="0 0 130 130" fill="none" xmlns="http://www.w3.org/2000/svg">
<circle cx="65" cy="65" r="65" fill="#DC3A3A"/>
<path d="M39 29C34.6 29 31 32.6 31 37V93C31 97.4 34.6 101 39 101H95C99.4 101 103 97.4 103 93V37C103 32.6 99.4 29 95 29H39ZM39 37H95V93H39V37ZM55 45L55.0156 45.0391C55.0156 45.3551 55.0072 84.9722 55.0312 84.9922C55.0553 85.0122 59 84 63 84V64.5L71 84C75 84 78.9448 85.0122 78.9688 84.9922C78.9927 84.9762 78.9844 45.0312 78.9844 45.0312L71 45V65.0078C67.004 55.0038 63 45 63 45H55Z" fill="white"/>
</svg>
