<svg width="130" height="130" viewBox="0 0 130 130" fill="none" xmlns="http://www.w3.org/2000/svg">
<circle cx="65" cy="65" r="65" fill="#3ADC4A"/>
<path d="M64.5 19.0833C39.4709 19.0833 19.0833 39.4709 19.0833 64.5C19.0833 89.5291 39.4709 109.917 64.5 109.917C89.5292 109.917 109.917 89.5291 109.917 64.5C109.917 39.4709 89.5292 19.0833 64.5 19.0833ZM64.5 28.1667C84.6202 28.1667 100.833 44.3799 100.833 64.5C100.833 84.6201 84.6202 100.833 64.5 100.833C44.3799 100.833 28.1667 84.6201 28.1667 64.5C28.1667 44.3799 44.3799 28.1667 64.5 28.1667ZM58.5479 46.3333C51.5538 46.3333 44.9532 47.1128 38.7402 48.6751C37.187 49.0612 36.017 50.2216 36.017 52.5515C36.017 54.8814 37.5724 56.8274 39.9023 56.4368C41.0649 56.4368 41.4586 56.0465 42.2352 56.0465C47.2855 54.8793 53.1116 54.1038 58.5479 54.1038C69.4252 54.1038 80.6883 56.82 88.4591 61.0938C89.6217 61.4798 90.0065 61.8744 90.7831 61.8744C93.1176 61.8744 94.6726 60.319 95.0587 57.9891C95.0587 56.0498 93.9018 54.8805 92.7346 54.1038C83.0246 49.0535 70.5879 46.3333 58.5479 46.3333ZM57.7762 59.9317C51.1726 59.9317 46.5135 61.0974 41.8538 62.2646C39.9099 63.0413 39.1305 63.8158 39.1305 65.7596C39.1305 67.3129 40.2914 68.8643 42.2352 68.8643C43.0118 68.8643 43.4012 68.8645 44.1778 68.474C47.6749 67.6973 52.3356 66.9216 57.3859 66.9216C67.482 66.9216 76.8082 69.2475 83.4118 73.5212C84.1884 73.9073 84.9681 74.3018 85.7447 74.3018C87.684 74.3018 88.8446 72.7462 89.2397 70.8069C89.2397 69.6442 88.4643 68.4789 87.2971 67.7022C78.7496 62.6519 68.6535 59.9317 57.7762 59.9317ZM58.9382 73.6188C53.5019 73.6188 48.4476 74.3942 43.3972 75.5614C41.844 75.5614 41.0732 76.7226 41.0732 78.2758C41.0732 79.8291 42.2343 80.999 43.7875 80.999C44.1781 80.999 44.9535 80.6087 45.7302 80.6087C49.6133 79.8321 54.2742 79.0564 58.5479 79.0564C66.3142 79.0564 73.6996 80.9969 79.5265 84.494C80.3032 84.88 80.6925 85.2657 81.4692 85.2657C82.6318 85.2657 83.7972 84.4952 84.5738 82.5514C84.5738 80.9981 83.7981 80.6048 83.0215 79.8281C76.0273 75.945 67.8717 73.6188 58.9382 73.6188Z" fill="white"/>
</svg>
