<svg width="130" height="130" viewBox="0 0 130 130" fill="none" xmlns="http://www.w3.org/2000/svg">
<circle cx="65" cy="65" r="65" fill="#0094FF"/>
<path d="M101.232 24.0782C99.7228 23.9181 98.0821 24.1539 96.4335 24.8056C94.3897 25.6095 62.3654 39.0808 32.5131 51.6476L22.6491 55.7989C18.8296 57.3476 16.9011 59.8663 16.9011 63.259C16.9011 65.6343 17.9063 68.8561 22.7023 70.7545L39.3522 77.4251C40.7919 81.7442 44.1358 91.7726 44.976 94.4386C45.4756 96.0191 46.7375 100.001 49.9257 100.932C50.5797 101.154 51.2622 101.269 51.9571 101.269C53.969 101.269 55.4177 100.332 56.1262 99.7874L66.7086 90.8372L79.5619 102.724C80.0569 103.228 82.6772 105.775 86.197 105.775C90.5888 105.775 93.9202 102.119 94.615 98.5811C94.992 96.6418 107.388 34.4121 107.388 34.4212C108.501 29.4299 106.5 26.8406 105.215 25.737C104.114 24.7946 102.742 24.2383 101.232 24.0782ZM98.2253 33.8889C96.5131 42.4727 87.1793 89.3261 85.7623 96.0796L66.9747 78.7024L54.2279 89.4977L57.7583 75.6865C57.7583 75.6865 82.1132 51.0336 83.5802 49.5985C84.761 48.4494 85.0083 48.0467 85.0083 47.647C85.0083 47.1156 84.7348 46.7333 84.1035 46.7333C83.5358 46.7333 82.7648 47.2773 82.3561 47.5317C77.1634 50.769 55.0519 63.366 44.1688 69.557L28.3794 63.2501L36.0435 60.0301C55.5681 51.8097 90.341 37.168 98.2253 33.8889Z" fill="white"/>
</svg>
