<svg width="130" height="130" viewBox="0 0 130 130" fill="none" xmlns="http://www.w3.org/2000/svg">
<circle cx="65" cy="65" r="65" fill="#DC3A3A"/>
<path d="M65 33C65 33 39.9822 32.9999 33.7422 34.6719C30.2982 35.5919 27.5919 38.3022 26.6719 41.7422C24.9999 47.9822 25 65 25 65C25 65 24.9999 82.0178 26.6719 88.2578C27.5919 91.7018 30.3022 94.4081 33.7422 95.3281C39.9822 97.0001 65 97 65 97C65 97 90.0178 97.0001 96.2578 95.3281C99.6978 94.4081 102.408 91.6978 103.328 88.2578C105 82.0178 105 65 105 65C105 65 105 47.9822 103.328 41.7422C102.408 38.3022 99.6978 35.5919 96.2578 34.6719C90.0178 32.9999 65 33 65 33ZM65 41C76.528 41 90.9635 41.5344 94.1875 42.3984C94.8635 42.5784 95.4176 43.1325 95.6016 43.8125C96.5656 47.4045 97 58.368 97 65C97 71.632 96.5656 82.5915 95.6016 86.1875C95.4216 86.8635 94.8675 87.4176 94.1875 87.6016C90.9675 88.4656 76.528 89 65 89C53.476 89 39.0405 88.4656 35.8125 87.6016C35.1365 87.4216 34.5824 86.8675 34.3984 86.1875C33.4344 82.5955 33 71.632 33 65C33 58.368 33.4344 47.4047 34.3984 43.8047C34.5784 43.1327 35.1325 42.5784 35.8125 42.3984C39.0325 41.5344 53.472 41 65 41ZM57 51.1406V78.8594L81 65L57 51.1406Z" fill="white"/>
</svg>
